<svg xmlns="http://www.w3.org/2000/svg" viewBox="0 0 1200 1200" width="1200" height="1200" preserveAspectRatio="xMidYMid slice" role="img" aria-label="flow artwork"><defs><linearGradient id="prismcu1lma1-sky" x1="0.3" y1="0.96" x2="0.7" y2="0.04"><stop offset="0" stop-color="#270f2d"/><stop offset="1" stop-color="#150818"/></linearGradient><linearGradient id="prismcu1lma1-g0" x1="0" y1="0" x2="0.1" y2="0.99"><stop offset="0" stop-color="#880d50"/><stop offset="1" stop-color="#000000"/></linearGradient><linearGradient id="prismcu1lma1-g1" x1="0" y1="0" x2="-0.1" y2="1"><stop offset="0" stop-color="#8c3309"/><stop offset="1" stop-color="#000000"/></linearGradient><linearGradient id="prismcu1lma1-g2" x1="0" y1="0" x2="0.07" y2="1"><stop offset="0" stop-color="#440c91"/><stop offset="1" stop-color="#000000"/></linearGradient><linearGradient id="prismcu1lma1-g3" x1="0" y1="0" x2="-0.27" y2="0.96"><stop offset="0" stop-color="#094199"/><stop offset="1" stop-color="#000000"/></linearGradient><linearGradient id="prismcu1lma1-g4" x1="0" y1="0" x2="0.1" y2="0.99"><stop offset="0" stop-color="#8e6b08"/><stop offset="1" stop-color="#000000"/></linearGradient><linearGradient id="prismcu1lma1-g5" x1="0" y1="0" x2="-0.07" y2="1"><stop offset="0" stop-color="#880d50"/><stop offset="1" stop-color="#000000"/></linearGradient></defs><rect x="0" y="0" width="1200" height="1200" fill="url(#prismcu1lma1-sky)"/><path d="M 0 365.54 L 0 365.54 C 108 365.54, 132 368.1, 240 368.1 C 348 368.1, 372 308.25, 480 308.25 C 588 308.25, 612 268.69, 720 268.69 C 828 268.69, 852 304.1, 960 304.1 C 1068 304.1, 1092 365.54, 1200 365.54 L 1200 1200 L 0 1200 L 1200 748.3 C 1092 748.3, 1068 741.43, 960 741.43 C 852 741.43, 828 706.57, 720 706.57 C 612 706.57, 588 691.9, 480 691.9 C 372 691.9, 348 717.68, 240 717.68 C 132 717.68, 108 748.3, 0 748.3 Z" fill="url(#prismcu1lma1-g0)" opacity="1.000"/><path d="M 0 450.08 L 0 450.08 C 108 450.08, 132 417.17, 240 417.17 C 348 417.17, 372 483.43, 480 483.43 C 588 483.43, 612 557.3, 720 557.3 C 828 557.3, 852 536.69, 960 536.69 C 1068 536.69, 1092 450.08, 1200 450.08 L 1200 1200 L 0 1200 L 1200 919.51 C 1092 919.51, 1068 944.29, 960 944.29 C 852 944.29, 828 990.78, 720 990.78 C 612 990.78, 588 994.74, 480 994.74 C 372 994.74, 348 950.69, 240 950.69 C 132 950.69, 108 919.51, 0 919.51 Z" fill="url(#prismcu1lma1-g1)" opacity="0.936"/><path d="M 0 696.21 L 0 696.21 C 180 696.21, 220 751.63, 400 751.63 C 580 751.63, 620 644.81, 800 644.81 C 980 644.81, 1020 696.21, 1200 696.21 L 1200 1200 L 0 1200 L 1200 1088.11 C 1020 1088.11, 980 1029.37, 800 1029.37 C 620 1029.37, 580 1057.16, 400 1057.16 C 220 1057.16, 180 1088.11, 0 1088.11 Z" fill="url(#prismcu1lma1-g2)" opacity="0.872"/><path d="M 0 796.12 L 0 796.12 C 135 796.12, 165 952.02, 300 952.02 C 435 952.02, 465 846.1, 600 846.1 C 735 846.1, 765 690.2, 900 690.2 C 1035 690.2, 1065 796.12, 1200 796.12 L 1200 1200 L 0 1200 L 1200 1220.7 C 1065 1220.7, 1035 1117.86, 900 1117.86 C 765 1117.86, 735 1104.84, 600 1104.84 C 465 1104.84, 435 1207.68, 300 1207.68 C 165 1207.68, 135 1220.7, 0 1220.7 Z" fill="url(#prismcu1lma1-g3)" opacity="0.808"/><path d="M 0 1170.08 L 0 1170.08 C 135 1170.08, 165 1261.24, 300 1261.24 C 435 1261.24, 465 1183.88, 600 1183.88 C 735 1183.88, 765 1092.72, 900 1092.72 C 1035 1092.72, 1065 1170.08, 1200 1170.08 L 1200 1200 L 0 1200 L 1200 1587.21 C 1065 1587.21, 1035 1523.23, 900 1523.23 C 765 1523.23, 735 1508.05, 600 1508.05 C 465 1508.05, 435 1572.03, 300 1572.03 C 165 1572.03, 135 1587.21, 0 1587.21 Z" fill="url(#prismcu1lma1-g4)" opacity="0.744"/><path d="M 0 1196.26 L 0 1196.26 C 180 1196.26, 220 1303.78, 400 1303.78 C 580 1303.78, 620 1222.64, 800 1222.64 C 980 1222.64, 1020 1196.26, 1200 1196.26 L 1200 1200 L 0 1200 L 1200 1651.44 C 1020 1651.44, 980 1604.63, 800 1604.63 C 620 1604.63, 580 1662.77, 400 1662.77 C 220 1662.77, 180 1651.44, 0 1651.44 Z" fill="url(#prismcu1lma1-g5)" opacity="0.680"/></svg>