<svg xmlns="http://www.w3.org/2000/svg" viewBox="0 0 1200 1200" width="1200" height="1200" preserveAspectRatio="xMidYMid slice" role="img" aria-label="dots artwork"><defs><linearGradient id="prismnf7epl11-bg" x1="0.94" y1="0.26" x2="0.06" y2="0.74"><stop offset="0" stop-color="#120715"/><stop offset="1" stop-color="#020103"/></linearGradient><radialGradient id="prismnf7epl11-halo" cx="0.77" cy="0.29" r="0.55"><stop offset="0" stop-color="#ffbe0b" stop-opacity="0.6"/><stop offset="1" stop-color="#ffbe0b" stop-opacity="0"/></radialGradient></defs><rect x="0" y="0" width="1200" height="1200" fill="url(#prismnf7epl11-bg)"/><rect x="0" y="0" width="1200" height="1200" fill="url(#prismnf7epl11-halo)"/><g><circle cx="25" cy="25" r="2.44" fill="#e0218a" opacity="0.250"/><circle cx="75" cy="25" r="2.44" fill="#e0218a" opacity="0.250"/><circle cx="125" cy="25" r="2.52" fill="#e0218a" opacity="0.253"/><circle cx="175" cy="25" r="3.73" fill="#ffbe0b" opacity="0.304"/><circle cx="225" cy="25" r="3.69" fill="#ffbe0b" opacity="0.302"/><circle cx="275" cy="25" r="6.44" fill="#ffbe0b" opacity="0.417"/><circle cx="325" cy="25" r="4.75" fill="#ffbe0b" opacity="0.347"/><circle cx="375" cy="25" r="6.78" fill="#ffbe0b" opacity="0.432"/><circle cx="425" cy="25" r="6.28" fill="#ffbe0b" opacity="0.411"/><circle cx="475" cy="25" r="10.44" fill="#ffbe0b" opacity="0.585"/><circle cx="525" cy="25" r="7.8" fill="#ffbe0b" opacity="0.474"/><circle cx="575" cy="25" r="9.04" fill="#ffbe0b" opacity="0.526"/><circle cx="625" cy="25" r="10.61" fill="#ffbe0b" opacity="0.592"/><circle cx="675" cy="25" r="12.98" fill="#a37a07" opacity="0.691"/><circle cx="725" cy="25" r="12.88" fill="#a37907" opacity="0.687"/><circle cx="775" cy="25" r="13.06" fill="#a47a07" opacity="0.695"/><circle cx="825" cy="25" r="13.39" fill="#a57b07" opacity="0.708"/><circle cx="875" cy="25" r="13.33" fill="#a57b07" opacity="0.706"/><circle cx="925" cy="25" r="12.16" fill="#9f7607" opacity="0.657"/><circle cx="975" cy="25" r="13.56" fill="#a67c07" opacity="0.715"/><circle cx="1025" cy="25" r="13.77" fill="#a87d07" opacity="0.724"/><circle cx="1075" cy="25" r="12.82" fill="#a27907" opacity="0.684"/><circle cx="1125" cy="25" r="11.96" fill="#9e7507" opacity="0.649"/><circle cx="1175" cy="25" r="11.56" fill="#9b7407" opacity="0.632"/><circle cx="25" cy="75" r="3.14" fill="#e0218a" opacity="0.279"/><circle cx="75" cy="75" r="2.83" fill="#e0218a" opacity="0.266"/><circle cx="125" cy="75" r="4.74" fill="#e0218a" opacity="0.346"/><circle cx="175" cy="75" r="3.98" fill="#e0218a" opacity="0.314"/><circle cx="225" cy="75" r="4.9" fill="#ffbe0b" opacity="0.353"/><circle cx="275" cy="75" r="6.36" fill="#ffbe0b" opacity="0.414"/><circle cx="325" cy="75" r="5.71" fill="#ffbe0b" opacity="0.387"/><circle cx="375" cy="75" r="5.92" fill="#ffbe0b" opacity="0.395"/><circle cx="425" cy="75" r="8.13" fill="#ffbe0b" opacity="0.488"/><circle cx="475" cy="75" r="10.12" fill="#ffbe0b" opacity="0.571"/><circle cx="525" cy="75" r="9.16" fill="#ffbe0b" opacity="0.531"/><circle cx="575" cy="75" r="9.58" fill="#ffbe0b" opacity="0.549"/><circle cx="625" cy="75" r="11.41" fill="#9a7307" opacity="0.625"/><circle cx="675" cy="75" r="13.77" fill="#a87d07" opacity="0.724"/><circle cx="725" cy="75" r="12.24" fill="#9f7707" opacity="0.660"/><circle cx="775" cy="75" r="12.97" fill="#a37a07" opacity="0.690"/><circle cx="825" cy="75" r="13.09" fill="#a47a07" opacity="0.695"/><circle cx="875" cy="75" r="14.02" fill="#a97e08" opacity="0.735"/><circle cx="925" cy="75" r="15.76" fill="#b38508" opacity="0.807"/><circle cx="975" cy="75" r="14.37" fill="#ab7f08" opacity="0.749"/><circle cx="1025" cy="75" r="15.43" fill="#b18408" opacity="0.793"/><circle cx="1075" cy="75" r="13.71" fill="#a77d07" opacity="0.721"/><circle cx="1125" cy="75" r="14.17" fill="#aa7f08" opacity="0.741"/><circle cx="1175" cy="75" r="13.94" fill="#a97e07" opacity="0.731"/><circle cx="25" cy="125" r="4.28" fill="#e0218a" opacity="0.327"/><circle cx="75" cy="125" r="4.74" fill="#e0218a" opacity="0.346"/><circle cx="125" cy="125" r="4.03" fill="#e0218a" opacity="0.316"/><circle cx="175" cy="125" r="3.87" fill="#e0218a" opacity="0.310"/><circle cx="225" cy="125" r="3.96" fill="#e0218a" opacity="0.313"/><circle cx="275" cy="125" r="4.89" fill="#ffbe0b" opacity="0.352"/><circle cx="325" cy="125" r="6.34" fill="#ffbe0b" opacity="0.413"/><circle cx="375" cy="125" r="9.53" fill="#ffbe0b" opacity="0.547"/><circle cx="425" cy="125" r="8.76" fill="#ffbe0b" opacity="0.514"/><circle cx="475" cy="125" r="11.61" fill="#9c7407" opacity="0.634"/><circle cx="525" cy="125" r="10.71" fill="#ffbe0b" opacity="0.596"/><circle cx="575" cy="125" r="12.37" fill="#a07707" opacity="0.665"/><circle cx="625" cy="125" r="12.53" fill="#a17807" opacity="0.672"/><circle cx="675" cy="125" r="13.38" fill="#a57b07" opacity="0.708"/><circle cx="725" cy="125" r="14.31" fill="#ab7f08" opacity="0.747"/><circle cx="775" cy="125" r="14.58" fill="#ac8008" opacity="0.758"/><circle cx="825" cy="125" r="15.41" fill="#b18408" opacity="0.793"/><circle cx="875" cy="125" r="16.58" fill="#b78908" opacity="0.842"/><circle cx="925" cy="125" r="15.09" fill="#af8208" opacity="0.779"/><circle cx="975" cy="125" r="15.17" fill="#af8308" opacity="0.783"/><circle cx="1025" cy="125" r="14.38" fill="#ab7f08" opacity="0.750"/><circle cx="1075" cy="125" r="15.14" fill="#af8308" opacity="0.782"/><circle cx="1125" cy="125" r="14.7" fill="#ad8108" opacity="0.763"/><circle cx="1175" cy="125" r="11.57" fill="#9b7407" opacity="0.632"/><circle cx="25" cy="175" r="5.89" fill="#e0218a" opacity="0.394"/><circle cx="75" cy="175" r="5.21" fill="#e0218a" opacity="0.366"/><circle cx="125" cy="175" r="5.3" fill="#e0218a" opacity="0.369"/><circle cx="175" cy="175" r="5.88" fill="#e0218a" opacity="0.394"/><circle cx="225" cy="175" r="4.99" fill="#e0218a" opacity="0.357"/><circle cx="275" cy="175" r="7.5" fill="#ffbe0b" opacity="0.462"/><circle cx="325" cy="175" r="7.87" fill="#ffbe0b" opacity="0.477"/><circle cx="375" cy="175" r="6.83" fill="#ffbe0b" opacity="0.434"/><circle cx="425" cy="175" r="8.65" fill="#ffbe0b" opacity="0.510"/><circle cx="475" cy="175" r="9.23" fill="#ffbe0b" opacity="0.534"/><circle cx="525" cy="175" r="12.14" fill="#9f7607" opacity="0.656"/><circle cx="575" cy="175" r="11.73" fill="#9c7407" opacity="0.639"/><circle cx="625" cy="175" r="12.43" fill="#a07707" opacity="0.668"/><circle cx="675" cy="175" r="13.96" fill="#a97e07" opacity="0.732"/><circle cx="725" cy="175" r="13.78" fill="#a87d07" opacity="0.724"/><circle cx="775" cy="175" r="15.76" fill="#b38508" opacity="0.807"/><circle cx="825" cy="175" r="17.08" fill="#ba8b08" opacity="0.863"/><circle cx="875" cy="175" r="15.5" fill="#b18408" opacity="0.797"/><circle cx="925" cy="175" r="17.4" fill="#bc8c08" opacity="0.876"/><circle cx="975" cy="175" r="17.1" fill="#ba8b08" opacity="0.863"/><circle cx="1025" cy="175" r="15.11" fill="#af8208" opacity="0.780"/><circle cx="1075" cy="175" r="14.74" fill="#ad8108" opacity="0.765"/><circle cx="1125" cy="175" r="13.75" fill="#a77d07" opacity="0.723"/><circle cx="1175" cy="175" r="13.99" fill="#a97e07" opacity="0.733"/><circle cx="25" cy="225" r="4.78" fill="#e0218a" opacity="0.348"/><circle cx="75" cy="225" r="6.29" fill="#e0218a" opacity="0.411"/><circle cx="125" cy="225" r="6.5" fill="#e0218a" opacity="0.420"/><circle cx="175" cy="225" r="6.59" fill="#e0218a" opacity="0.423"/><circle cx="225" cy="225" r="7.02" fill="#e0218a" opacity="0.442"/><circle cx="275" cy="225" r="6.64" fill="#e0218a" opacity="0.426"/><circle cx="325" cy="225" r="9.19" fill="#ffbe0b" opacity="0.533"/><circle cx="375" cy="225" r="6.61" fill="#ffbe0b" opacity="0.424"/><circle cx="425" cy="225" r="10.19" fill="#ffbe0b" opacity="0.574"/><circle cx="475" cy="225" r="9.54" fill="#ffbe0b" opacity="0.547"/><circle cx="525" cy="225" r="10.75" fill="#ffbe0b" opacity="0.597"/><circle cx="575" cy="225" r="12.14" fill="#9f7607" opacity="0.656"/><circle cx="625" cy="225" r="14.37" fill="#ab7f08" opacity="0.749"/><circle cx="675" cy="225" r="13.74" fill="#a77d07" opacity="0.723"/><circle cx="725" cy="225" r="15.78" fill="#b38508" opacity="0.808"/><circle cx="775" cy="225" r="15.29" fill="#b08308" opacity="0.788"/><circle cx="825" cy="225" r="17.13" fill="#ba8b08" opacity="0.865"/><circle cx="875" cy="225" r="17.01" fill="#ba8a08" opacity="0.860"/><circle cx="925" cy="225" r="18.3" fill="#c19009" opacity="0.914"/><circle cx="975" cy="225" r="17.59" fill="#bd8d08" opacity="0.884"/><circle cx="1025" cy="225" r="16.94" fill="#b98a08" opacity="0.857"/><circle cx="1075" cy="225" r="15.41" fill="#b18408" opacity="0.793"/><circle cx="1125" cy="225" r="16.41" fill="#b68808" opacity="0.835"/><circle cx="1175" cy="225" r="14.41" fill="#ab8008" opacity="0.751"/><circle cx="25" cy="275" r="7.55" fill="#e0218a" opacity="0.464"/><circle cx="75" cy="275" r="5.91" fill="#e0218a" opacity="0.395"/><circle cx="125" cy="275" r="8.07" fill="#e0218a" opacity="0.486"/><circle cx="175" cy="275" r="6.26" fill="#e0218a" opacity="0.410"/><circle cx="225" cy="275" r="8.72" fill="#e0218a" opacity="0.513"/><circle cx="275" cy="275" r="6.46" fill="#e0218a" opacity="0.418"/><circle cx="325" cy="275" r="7.43" fill="#e0218a" opacity="0.459"/><circle cx="375" cy="275" r="8.71" fill="#ffbe0b" opacity="0.512"/><circle cx="425" cy="275" r="10.23" fill="#ffbe0b" opacity="0.576"/><circle cx="475" cy="275" r="9.05" fill="#ffbe0b" opacity="0.527"/><circle cx="525" cy="275" r="11.34" fill="#ffbe0b" opacity="0.622"/><circle cx="575" cy="275" r="13.8" fill="#a87d07" opacity="0.726"/><circle cx="625" cy="275" r="13.19" fill="#a47b07" opacity="0.700"/><circle cx="675" cy="275" r="13.49" fill="#a67c07" opacity="0.712"/><circle cx="725" cy="275" r="14.9" fill="#ae8208" opacity="0.771"/><circle cx="775" cy="275" r="16.05" fill="#b48608" opacity="0.820"/><circle cx="825" cy="275" r="17.51" fill="#bc8c08" opacity="0.881"/><circle cx="875" cy="275" r="18.71" fill="#c39109" opacity="0.931"/><circle cx="925" cy="275" r="19.13" fill="#c59309" opacity="0.948"/><circle cx="975" cy="275" r="18.21" fill="#c08f09" opacity="0.910"/><circle cx="1025" cy="275" r="18.26" fill="#c19009" opacity="0.912"/><circle cx="1075" cy="275" r="16.64" fill="#b88908" opacity="0.844"/><circle cx="1125" cy="275" r="15.09" fill="#af8208" opacity="0.780"/><circle cx="1175" cy="275" r="14.01" fill="#a97e07" opacity="0.734"/><circle cx="25" cy="325" r="8.25" fill="#e0218a" opacity="0.493"/><circle cx="75" cy="325" r="10.07" fill="#e0218a" opacity="0.569"/><circle cx="125" cy="325" r="7.89" fill="#e0218a" opacity="0.478"/><circle cx="175" cy="325" r="7.21" fill="#e0218a" opacity="0.449"/><circle cx="225" cy="325" r="9.73" fill="#e0218a" opacity="0.555"/><circle cx="275" cy="325" r="9.76" fill="#e0218a" opacity="0.556"/><circle cx="325" cy="325" r="8.4" fill="#e0218a" opacity="0.500"/><circle cx="375" cy="325" r="7.24" fill="#e0218a" opacity="0.451"/><circle cx="425" cy="325" r="9.79" fill="#ffbe0b" opacity="0.558"/><circle cx="475" cy="325" r="10.24" fill="#ffbe0b" opacity="0.576"/><circle cx="525" cy="325" r="11.44" fill="#9b7307" opacity="0.627"/><circle cx="575" cy="325" r="12.11" fill="#9e7607" opacity="0.655"/><circle cx="625" cy="325" r="12.95" fill="#a37a07" opacity="0.690"/><circle cx="675" cy="325" r="13.77" fill="#a87d07" opacity="0.724"/><circle cx="725" cy="325" r="15.91" fill="#b38608" opacity="0.813"/><circle cx="775" cy="325" r="17.27" fill="#bb8b08" opacity="0.871"/><circle cx="825" cy="325" r="18.38" fill="#c19009" opacity="0.917"/><circle cx="875" cy="325" r="19.44" fill="#c79409" opacity="0.962"/><circle cx="925" cy="325" r="19.86" fill="#c99609" opacity="0.979"/><circle cx="975" cy="325" r="19.39" fill="#c79409" opacity="0.959"/><circle cx="1025" cy="325" r="18.46" fill="#c29009" opacity="0.920"/><circle cx="1075" cy="325" r="17.43" fill="#bc8c08" opacity="0.877"/><circle cx="1125" cy="325" r="16.82" fill="#b98a08" opacity="0.852"/><circle cx="1175" cy="325" r="14.56" fill="#ac8008" opacity="0.757"/><circle cx="25" cy="375" r="9.85" fill="#e0218a" opacity="0.560"/><circle cx="75" cy="375" r="8.39" fill="#e0218a" opacity="0.499"/><circle cx="125" cy="375" r="9.99" fill="#e0218a" opacity="0.566"/><circle cx="175" cy="375" r="8.13" fill="#e0218a" opacity="0.488"/><circle cx="225" cy="375" r="11.73" fill="#980a58" opacity="0.639"/><circle cx="275" cy="375" r="10.48" fill="#e0218a" opacity="0.586"/><circle cx="325" cy="375" r="9.64" fill="#e0218a" opacity="0.551"/><circle cx="375" cy="375" r="10.95" fill="#e0218a" opacity="0.606"/><circle cx="425" cy="375" r="9.49" fill="#ffbe0b" opacity="0.545"/><circle cx="475" cy="375" r="11.75" fill="#9c7507" opacity="0.639"/><circle cx="525" cy="375" r="12.58" fill="#a17807" opacity="0.674"/><circle cx="575" cy="375" r="11.88" fill="#9d7507" opacity="0.645"/><circle cx="625" cy="375" r="15.2" fill="#b08308" opacity="0.784"/><circle cx="675" cy="375" r="13.7" fill="#a77d07" opacity="0.721"/><circle cx="725" cy="375" r="17.02" fill="#ba8a08" opacity="0.860"/><circle cx="775" cy="375" r="16.71" fill="#b88908" opacity="0.847"/><circle cx="825" cy="375" r="17.91" fill="#bf8e08" opacity="0.897"/><circle cx="875" cy="375" r="18.89" fill="#c49209" opacity="0.938"/><circle cx="925" cy="375" r="19.78" fill="#c99609" opacity="0.976"/><circle cx="975" cy="375" r="18.83" fill="#c49209" opacity="0.936"/><circle cx="1025" cy="375" r="17.85" fill="#be8e08" opacity="0.895"/><circle cx="1075" cy="375" r="16.36" fill="#b68808" opacity="0.832"/><circle cx="1125" cy="375" r="16.48" fill="#b78808" opacity="0.838"/><circle cx="1175" cy="375" r="15.62" fill="#b28508" opacity="0.802"/><circle cx="25" cy="425" r="8.05" fill="#e0218a" opacity="0.485"/><circle cx="75" cy="425" r="10.8" fill="#e0218a" opacity="0.600"/><circle cx="125" cy="425" r="9.75" fill="#e0218a" opacity="0.556"/><circle cx="175" cy="425" r="11.84" fill="#990a58" opacity="0.643"/><circle cx="225" cy="425" r="11" fill="#e0218a" opacity="0.608"/><circle cx="275" cy="425" r="9.51" fill="#e0218a" opacity="0.546"/><circle cx="325" cy="425" r="9.9" fill="#e0218a" opacity="0.562"/><circle cx="375" cy="425" r="10.6" fill="#e0218a" opacity="0.591"/><circle cx="425" cy="425" r="11.38" fill="#e0218a" opacity="0.624"/><circle cx="475" cy="425" r="9.31" fill="#ffbe0b" opacity="0.537"/><circle cx="525" cy="425" r="11.81" fill="#9d7507" opacity="0.642"/><circle cx="575" cy="425" r="11.17" fill="#ffbe0b" opacity="0.615"/><circle cx="625" cy="425" r="13.44" fill="#a67c07" opacity="0.710"/><circle cx="675" cy="425" r="15.69" fill="#b28508" opacity="0.804"/><circle cx="725" cy="425" r="14.93" fill="#ae8208" opacity="0.773"/><circle cx="775" cy="425" r="16.13" fill="#b58708" opacity="0.823"/><circle cx="825" cy="425" r="17.19" fill="#bb8b08" opacity="0.867"/><circle cx="875" cy="425" r="18.68" fill="#c39109" opacity="0.930"/><circle cx="925" cy="425" r="18.78" fill="#c39209" opacity="0.934"/><circle cx="975" cy="425" r="17.9" fill="#bf8e08" opacity="0.897"/><circle cx="1025" cy="425" r="17.65" fill="#bd8d08" opacity="0.887"/><circle cx="1075" cy="425" r="17.34" fill="#bb8c08" opacity="0.874"/><circle cx="1125" cy="425" r="14.61" fill="#ac8008" opacity="0.759"/><circle cx="1175" cy="425" r="14.34" fill="#ab7f08" opacity="0.748"/><circle cx="25" cy="475" r="12.47" fill="#9c0a5a" opacity="0.670"/><circle cx="75" cy="475" r="11.5" fill="#970a57" opacity="0.629"/><circle cx="125" cy="475" r="11.52" fill="#970a57" opacity="0.630"/><circle cx="175" cy="475" r="11.14" fill="#e0218a" opacity="0.614"/><circle cx="225" cy="475" r="12.03" fill="#9a0a59" opacity="0.651"/><circle cx="275" cy="475" r="12.35" fill="#9b0a5a" opacity="0.665"/><circle cx="325" cy="475" r="11.09" fill="#e0218a" opacity="0.612"/><circle cx="375" cy="475" r="12.39" fill="#9c0a5a" opacity="0.666"/><circle cx="425" cy="475" r="12.16" fill="#9a0a59" opacity="0.657"/><circle cx="475" cy="475" r="13.08" fill="#9f0a5c" opacity="0.695"/><circle cx="525" cy="475" r="13.05" fill="#a47a07" opacity="0.694"/><circle cx="575" cy="475" r="12.72" fill="#a27907" opacity="0.680"/><circle cx="625" cy="475" r="14.01" fill="#a97e07" opacity="0.734"/><circle cx="675" cy="475" r="14.66" fill="#ad8108" opacity="0.762"/><circle cx="725" cy="475" r="15.04" fill="#af8208" opacity="0.777"/><circle cx="775" cy="475" r="16.08" fill="#b48708" opacity="0.821"/><circle cx="825" cy="475" r="16.31" fill="#b68708" opacity="0.830"/><circle cx="875" cy="475" r="17.03" fill="#ba8a08" opacity="0.861"/><circle cx="925" cy="475" r="18.3" fill="#c19009" opacity="0.914"/><circle cx="975" cy="475" r="17.58" fill="#bd8d08" opacity="0.884"/><circle cx="1025" cy="475" r="17.4" fill="#bc8c08" opacity="0.876"/><circle cx="1075" cy="475" r="15" fill="#ae8208" opacity="0.776"/><circle cx="1125" cy="475" r="15.27" fill="#b08308" opacity="0.787"/><circle cx="1175" cy="475" r="14.47" fill="#ab8008" opacity="0.753"/><circle cx="25" cy="525" r="11.17" fill="#e0218a" opacity="0.615"/><circle cx="75" cy="525" r="11.49" fill="#970a57" opacity="0.629"/><circle cx="125" cy="525" r="11.62" fill="#970a58" opacity="0.634"/><circle cx="175" cy="525" r="12.41" fill="#9c0a5a" opacity="0.667"/><circle cx="225" cy="525" r="12.04" fill="#9a0a59" opacity="0.652"/><circle cx="275" cy="525" r="14.28" fill="#a60b60" opacity="0.746"/><circle cx="325" cy="525" r="12.79" fill="#9e0a5b" opacity="0.683"/><circle cx="375" cy="525" r="13.51" fill="#a20a5e" opacity="0.713"/><circle cx="425" cy="525" r="12.9" fill="#9e0a5c" opacity="0.688"/><circle cx="475" cy="525" r="11.03" fill="#e0218a" opacity="0.610"/><circle cx="525" cy="525" r="12.06" fill="#9a0a59" opacity="0.653"/><circle cx="575" cy="525" r="11.28" fill="#ffbe0b" opacity="0.620"/><circle cx="625" cy="525" r="14.5" fill="#ac8008" opacity="0.755"/><circle cx="675" cy="525" r="15.16" fill="#af8308" opacity="0.782"/><circle cx="725" cy="525" r="14.37" fill="#ab7f08" opacity="0.749"/><circle cx="775" cy="525" r="16.23" fill="#b58708" opacity="0.827"/><circle cx="825" cy="525" r="15.8" fill="#b38508" opacity="0.809"/><circle cx="875" cy="525" r="16.15" fill="#b58708" opacity="0.824"/><circle cx="925" cy="525" r="16.86" fill="#b98a08" opacity="0.854"/><circle cx="975" cy="525" r="17.06" fill="#ba8b08" opacity="0.862"/><circle cx="1025" cy="525" r="15.34" fill="#b08308" opacity="0.790"/><circle cx="1075" cy="525" r="14.62" fill="#ac8008" opacity="0.760"/><circle cx="1125" cy="525" r="14.53" fill="#ac8008" opacity="0.756"/><circle cx="1175" cy="525" r="13.64" fill="#a77c07" opacity="0.719"/><circle cx="25" cy="575" r="13.34" fill="#a10a5d" opacity="0.706"/><circle cx="75" cy="575" r="13.69" fill="#a30b5e" opacity="0.721"/><circle cx="125" cy="575" r="13.27" fill="#a00a5d" opacity="0.703"/><circle cx="175" cy="575" r="13.71" fill="#a30b5e" opacity="0.721"/><circle cx="225" cy="575" r="13.71" fill="#a30b5e" opacity="0.721"/><circle cx="275" cy="575" r="15.28" fill="#ab0b63" opacity="0.787"/><circle cx="325" cy="575" r="13.51" fill="#a20a5e" opacity="0.713"/><circle cx="375" cy="575" r="12.78" fill="#9e0a5b" opacity="0.683"/><circle cx="425" cy="575" r="12.53" fill="#9c0a5b" opacity="0.672"/><circle cx="475" cy="575" r="13.45" fill="#a10a5d" opacity="0.711"/><circle cx="525" cy="575" r="12.96" fill="#9f0a5c" opacity="0.690"/><circle cx="575" cy="575" r="10.08" fill="#e0218a" opacity="0.570"/><circle cx="625" cy="575" r="10.85" fill="#ffbe0b" opacity="0.602"/><circle cx="675" cy="575" r="12.01" fill="#9e7607" opacity="0.650"/><circle cx="725" cy="575" r="13.49" fill="#a67c07" opacity="0.712"/><circle cx="775" cy="575" r="13.13" fill="#a47a07" opacity="0.697"/><circle cx="825" cy="575" r="14.82" fill="#ad8108" opacity="0.768"/><circle cx="875" cy="575" r="14.66" fill="#ad8108" opacity="0.761"/><circle cx="925" cy="575" r="15.49" fill="#b18408" opacity="0.796"/><circle cx="975" cy="575" r="14.31" fill="#ab7f08" opacity="0.747"/><circle cx="1025" cy="575" r="15.73" fill="#b38508" opacity="0.806"/><circle cx="1075" cy="575" r="14.98" fill="#ae8208" opacity="0.775"/><circle cx="1125" cy="575" r="12.46" fill="#a07707" opacity="0.669"/><circle cx="1175" cy="575" r="13.15" fill="#a47a07" opacity="0.698"/><circle cx="25" cy="625" r="13.48" fill="#a20a5e" opacity="0.712"/><circle cx="75" cy="625" r="14.66" fill="#a80b61" opacity="0.761"/><circle cx="125" cy="625" r="13.83" fill="#a30b5f" opacity="0.727"/><circle cx="175" cy="625" r="14.66" fill="#a80b61" opacity="0.761"/><circle cx="225" cy="625" r="14.28" fill="#a60b60" opacity="0.745"/><circle cx="275" cy="625" r="14.85" fill="#a90b62" opacity="0.769"/><circle cx="325" cy="625" r="14.48" fill="#a70b61" opacity="0.754"/><circle cx="375" cy="625" r="15.5" fill="#ad0b64" opacity="0.796"/><circle cx="425" cy="625" r="14.17" fill="#a50b60" opacity="0.741"/><circle cx="475" cy="625" r="14.66" fill="#a80b61" opacity="0.761"/><circle cx="525" cy="625" r="12.79" fill="#9e0a5b" opacity="0.683"/><circle cx="575" cy="625" r="11.88" fill="#990a58" opacity="0.645"/><circle cx="625" cy="625" r="11.92" fill="#9d7507" opacity="0.647"/><circle cx="675" cy="625" r="11.24" fill="#ffbe0b" opacity="0.618"/><circle cx="725" cy="625" r="12.04" fill="#9e7607" opacity="0.652"/><circle cx="775" cy="625" r="14.29" fill="#aa7f08" opacity="0.746"/><circle cx="825" cy="625" r="13.14" fill="#a47a07" opacity="0.698"/><circle cx="875" cy="625" r="13.68" fill="#a77d07" opacity="0.720"/><circle cx="925" cy="625" r="13.64" fill="#a77c07" opacity="0.719"/><circle cx="975" cy="625" r="13.37" fill="#a57b07" opacity="0.707"/><circle cx="1025" cy="625" r="14.44" fill="#ab8008" opacity="0.752"/><circle cx="1075" cy="625" r="14.93" fill="#ae8208" opacity="0.773"/><circle cx="1125" cy="625" r="11.69" fill="#9c7407" opacity="0.637"/><circle cx="1175" cy="625" r="13.64" fill="#a77c07" opacity="0.719"/><circle cx="25" cy="675" r="15.12" fill="#aa0b63" opacity="0.781"/><circle cx="75" cy="675" r="15.56" fill="#ad0b64" opacity="0.799"/><circle cx="125" cy="675" r="14.52" fill="#a70b61" opacity="0.756"/><circle cx="175" cy="675" r="15.51" fill="#ad0b64" opacity="0.797"/><circle cx="225" cy="675" r="15.88" fill="#af0b65" opacity="0.813"/><circle cx="275" cy="675" r="16.1" fill="#b00b66" opacity="0.822"/><circle cx="325" cy="675" r="15.87" fill="#af0b65" opacity="0.812"/><circle cx="375" cy="675" r="16.73" fill="#b30c68" opacity="0.848"/><circle cx="425" cy="675" r="14.43" fill="#a70b60" opacity="0.752"/><circle cx="475" cy="675" r="14.21" fill="#a60b60" opacity="0.743"/><circle cx="525" cy="675" r="14.84" fill="#a90b62" opacity="0.769"/><circle cx="575" cy="675" r="12.7" fill="#9d0a5b" opacity="0.679"/><circle cx="625" cy="675" r="13.59" fill="#a20b5e" opacity="0.716"/><circle cx="675" cy="675" r="9.97" fill="#ffbe0b" opacity="0.565"/><circle cx="725" cy="675" r="13.01" fill="#a37a07" opacity="0.692"/><circle cx="775" cy="675" r="11.39" fill="#ffbe0b" opacity="0.624"/><circle cx="825" cy="675" r="13.21" fill="#a47b07" opacity="0.701"/><circle cx="875" cy="675" r="14.62" fill="#ac8008" opacity="0.760"/><circle cx="925" cy="675" r="14.4" fill="#ab8008" opacity="0.750"/><circle cx="975" cy="675" r="13.41" fill="#a67b07" opacity="0.709"/><circle cx="1025" cy="675" r="13.29" fill="#a57b07" opacity="0.704"/><circle cx="1075" cy="675" r="14.17" fill="#aa7f08" opacity="0.741"/><circle cx="1125" cy="675" r="12.77" fill="#a27907" opacity="0.682"/><circle cx="1175" cy="675" r="11.97" fill="#9e7507" opacity="0.649"/><circle cx="25" cy="725" r="14.14" fill="#a50b60" opacity="0.740"/><circle cx="75" cy="725" r="16.06" fill="#b00b66" opacity="0.820"/><circle cx="125" cy="725" r="16.24" fill="#b10b66" opacity="0.827"/><circle cx="175" cy="725" r="17.63" fill="#b80c6b" opacity="0.885"/><circle cx="225" cy="725" r="18.07" fill="#bb0c6c" opacity="0.904"/><circle cx="275" cy="725" r="17.47" fill="#b70c6a" opacity="0.879"/><circle cx="325" cy="725" r="17.12" fill="#b50c69" opacity="0.864"/><circle cx="375" cy="725" r="16.86" fill="#b40c68" opacity="0.853"/><circle cx="425" cy="725" r="16.58" fill="#b20c67" opacity="0.842"/><circle cx="475" cy="725" r="15.17" fill="#ab0b63" opacity="0.783"/><circle cx="525" cy="725" r="14.67" fill="#a80b61" opacity="0.762"/><circle cx="575" cy="725" r="13.97" fill="#a40b5f" opacity="0.733"/><circle cx="625" cy="725" r="11.4" fill="#e0218a" opacity="0.625"/><circle cx="675" cy="725" r="10.87" fill="#e0218a" opacity="0.603"/><circle cx="725" cy="725" r="11.2" fill="#ffbe0b" opacity="0.617"/><circle cx="775" cy="725" r="10.13" fill="#ffbe0b" opacity="0.572"/><circle cx="825" cy="725" r="11.74" fill="#9c7507" opacity="0.639"/><circle cx="875" cy="725" r="10.68" fill="#ffbe0b" opacity="0.595"/><circle cx="925" cy="725" r="13.75" fill="#a77d07" opacity="0.723"/><circle cx="975" cy="725" r="10.52" fill="#ffbe0b" opacity="0.588"/><circle cx="1025" cy="725" r="12.59" fill="#a17807" opacity="0.675"/><circle cx="1075" cy="725" r="11.73" fill="#9c7407" opacity="0.639"/><circle cx="1125" cy="725" r="11.97" fill="#9e7507" opacity="0.649"/><circle cx="1175" cy="725" r="9.02" fill="#ffbe0b" opacity="0.525"/><circle cx="25" cy="775" r="13.99" fill="#a40b5f" opacity="0.733"/><circle cx="75" cy="775" r="15.57" fill="#ad0b64" opacity="0.799"/><circle cx="125" cy="775" r="16.43" fill="#b20c67" opacity="0.835"/><circle cx="175" cy="775" r="17.98" fill="#ba0c6c" opacity="0.900"/><circle cx="225" cy="775" r="18.37" fill="#bc0c6d" opacity="0.917"/><circle cx="275" cy="775" r="18.28" fill="#bc0c6d" opacity="0.913"/><circle cx="325" cy="775" r="18.45" fill="#bd0c6d" opacity="0.920"/><circle cx="375" cy="775" r="18" fill="#ba0c6c" opacity="0.901"/><circle cx="425" cy="775" r="16.74" fill="#b30c68" opacity="0.848"/><circle cx="475" cy="775" r="14.73" fill="#a80b61" opacity="0.764"/><circle cx="525" cy="775" r="14.9" fill="#a90b62" opacity="0.771"/><circle cx="575" cy="775" r="12.52" fill="#9c0a5a" opacity="0.672"/><circle cx="625" cy="775" r="11.89" fill="#990a59" opacity="0.646"/><circle cx="675" cy="775" r="10.81" fill="#e0218a" opacity="0.600"/><circle cx="725" cy="775" r="8.95" fill="#e0218a" opacity="0.523"/><circle cx="775" cy="775" r="10.78" fill="#ffbe0b" opacity="0.599"/><circle cx="825" cy="775" r="11.18" fill="#ffbe0b" opacity="0.616"/><circle cx="875" cy="775" r="11.48" fill="#9b7307" opacity="0.628"/><circle cx="925" cy="775" r="10.65" fill="#ffbe0b" opacity="0.594"/><circle cx="975" cy="775" r="10.51" fill="#ffbe0b" opacity="0.588"/><circle cx="1025" cy="775" r="9.66" fill="#ffbe0b" opacity="0.552"/><circle cx="1075" cy="775" r="10.25" fill="#ffbe0b" opacity="0.577"/><circle cx="1125" cy="775" r="11.42" fill="#9b7307" opacity="0.626"/><circle cx="1175" cy="775" r="9.6" fill="#ffbe0b" opacity="0.550"/><circle cx="25" cy="825" r="15.59" fill="#ad0b64" opacity="0.800"/><circle cx="75" cy="825" r="15.39" fill="#ac0b64" opacity="0.792"/><circle cx="125" cy="825" r="17.83" fill="#b90c6b" opacity="0.894"/><circle cx="175" cy="825" r="17.62" fill="#b80c6b" opacity="0.885"/><circle cx="225" cy="825" r="18.8" fill="#bf0c6e" opacity="0.935"/><circle cx="275" cy="825" r="19.86" fill="#c40d72" opacity="0.979"/><circle cx="325" cy="825" r="18.9" fill="#bf0c6f" opacity="0.939"/><circle cx="375" cy="825" r="18.21" fill="#bb0c6c" opacity="0.910"/><circle cx="425" cy="825" r="17.63" fill="#b80c6b" opacity="0.886"/><circle cx="475" cy="825" r="16.36" fill="#b10b67" opacity="0.833"/><circle cx="525" cy="825" r="15.02" fill="#aa0b62" opacity="0.776"/><circle cx="575" cy="825" r="15.25" fill="#ab0b63" opacity="0.786"/><circle cx="625" cy="825" r="13.37" fill="#a10a5d" opacity="0.707"/><circle cx="675" cy="825" r="10.56" fill="#e0218a" opacity="0.590"/><circle cx="725" cy="825" r="9.21" fill="#e0218a" opacity="0.533"/><circle cx="775" cy="825" r="8.55" fill="#e0218a" opacity="0.505"/><circle cx="825" cy="825" r="9.24" fill="#ffbe0b" opacity="0.535"/><circle cx="875" cy="825" r="9.22" fill="#ffbe0b" opacity="0.533"/><circle cx="925" cy="825" r="9.71" fill="#ffbe0b" opacity="0.554"/><circle cx="975" cy="825" r="8.36" fill="#ffbe0b" opacity="0.498"/><circle cx="1025" cy="825" r="8.73" fill="#ffbe0b" opacity="0.513"/><circle cx="1075" cy="825" r="9.46" fill="#ffbe0b" opacity="0.543"/><circle cx="1125" cy="825" r="9.49" fill="#ffbe0b" opacity="0.545"/><circle cx="1175" cy="825" r="8.39" fill="#ffbe0b" opacity="0.499"/><circle cx="25" cy="875" r="15.1" fill="#aa0b63" opacity="0.780"/><circle cx="75" cy="875" r="16.15" fill="#b00b66" opacity="0.824"/><circle cx="125" cy="875" r="16.19" fill="#b00b66" opacity="0.825"/><circle cx="175" cy="875" r="18.31" fill="#bc0c6d" opacity="0.914"/><circle cx="225" cy="875" r="19.18" fill="#c10c6f" opacity="0.950"/><circle cx="275" cy="875" r="19.75" fill="#c40d71" opacity="0.975"/><circle cx="325" cy="875" r="19.17" fill="#c10c6f" opacity="0.950"/><circle cx="375" cy="875" r="18.65" fill="#be0c6e" opacity="0.928"/><circle cx="425" cy="875" r="16.49" fill="#b20c67" opacity="0.838"/><circle cx="475" cy="875" r="15.1" fill="#aa0b63" opacity="0.780"/><circle cx="525" cy="875" r="16.24" fill="#b10b66" opacity="0.827"/><circle cx="575" cy="875" r="12.5" fill="#9c0a5a" opacity="0.671"/><circle cx="625" cy="875" r="11.73" fill="#980a58" opacity="0.639"/><circle cx="675" cy="875" r="10.43" fill="#e0218a" opacity="0.584"/><circle cx="725" cy="875" r="9.49" fill="#e0218a" opacity="0.545"/><circle cx="775" cy="875" r="9.1" fill="#e0218a" opacity="0.529"/><circle cx="825" cy="875" r="10.39" fill="#ffbe0b" opacity="0.583"/><circle cx="875" cy="875" r="8.93" fill="#ffbe0b" opacity="0.521"/><circle cx="925" cy="875" r="8.55" fill="#ffbe0b" opacity="0.506"/><circle cx="975" cy="875" r="8.66" fill="#ffbe0b" opacity="0.510"/><circle cx="1025" cy="875" r="7.74" fill="#ffbe0b" opacity="0.472"/><circle cx="1075" cy="875" r="8.19" fill="#ffbe0b" opacity="0.491"/><circle cx="1125" cy="875" r="6.85" fill="#ffbe0b" opacity="0.434"/><circle cx="1175" cy="875" r="9.65" fill="#ffbe0b" opacity="0.552"/><circle cx="25" cy="925" r="15.75" fill="#ae0b65" opacity="0.807"/><circle cx="75" cy="925" r="16.37" fill="#b10b67" opacity="0.833"/><circle cx="125" cy="925" r="16.04" fill="#af0b66" opacity="0.819"/><circle cx="175" cy="925" r="17.37" fill="#b70c6a" opacity="0.875"/><circle cx="225" cy="925" r="18.81" fill="#bf0c6e" opacity="0.935"/><circle cx="275" cy="925" r="19" fill="#c00c6f" opacity="0.943"/><circle cx="325" cy="925" r="18.66" fill="#be0c6e" opacity="0.929"/><circle cx="375" cy="925" r="17.1" fill="#b50c69" opacity="0.864"/><circle cx="425" cy="925" r="16.27" fill="#b10b66" opacity="0.829"/><circle cx="475" cy="925" r="16.03" fill="#af0b66" opacity="0.819"/><circle cx="525" cy="925" r="15.5" fill="#ad0b64" opacity="0.797"/><circle cx="575" cy="925" r="12.7" fill="#9d0a5b" opacity="0.680"/><circle cx="625" cy="925" r="11.16" fill="#e0218a" opacity="0.615"/><circle cx="675" cy="925" r="12.67" fill="#9d0a5b" opacity="0.678"/><circle cx="725" cy="925" r="11.36" fill="#e0218a" opacity="0.623"/><circle cx="775" cy="925" r="10.07" fill="#e0218a" opacity="0.569"/><circle cx="825" cy="925" r="7.29" fill="#e0218a" opacity="0.453"/><circle cx="875" cy="925" r="7.17" fill="#ffbe0b" opacity="0.448"/><circle cx="925" cy="925" r="7.66" fill="#ffbe0b" opacity="0.468"/><circle cx="975" cy="925" r="8.4" fill="#ffbe0b" opacity="0.499"/><circle cx="1025" cy="925" r="8.09" fill="#ffbe0b" opacity="0.487"/><circle cx="1075" cy="925" r="7.91" fill="#ffbe0b" opacity="0.479"/><circle cx="1125" cy="925" r="8.37" fill="#ffbe0b" opacity="0.498"/><circle cx="1175" cy="925" r="6.41" fill="#ffbe0b" opacity="0.416"/><circle cx="25" cy="975" r="15.46" fill="#ac0b64" opacity="0.795"/><circle cx="75" cy="975" r="14.74" fill="#a80b62" opacity="0.765"/><circle cx="125" cy="975" r="16.79" fill="#b40c68" opacity="0.850"/><circle cx="175" cy="975" r="17.09" fill="#b50c69" opacity="0.863"/><circle cx="225" cy="975" r="16.72" fill="#b30c68" opacity="0.848"/><circle cx="275" cy="975" r="17.2" fill="#b60c69" opacity="0.868"/><circle cx="325" cy="975" r="17.24" fill="#b60c69" opacity="0.869"/><circle cx="375" cy="975" r="16.44" fill="#b20c67" opacity="0.836"/><circle cx="425" cy="975" r="16.17" fill="#b00b66" opacity="0.824"/><circle cx="475" cy="975" r="14.67" fill="#a80b61" opacity="0.762"/><circle cx="525" cy="975" r="14.4" fill="#a70b60" opacity="0.751"/><circle cx="575" cy="975" r="13.6" fill="#a20b5e" opacity="0.717"/><circle cx="625" cy="975" r="11.71" fill="#980a58" opacity="0.638"/><circle cx="675" cy="975" r="12.12" fill="#9a0a59" opacity="0.655"/><circle cx="725" cy="975" r="9.38" fill="#e0218a" opacity="0.540"/><circle cx="775" cy="975" r="10.83" fill="#e0218a" opacity="0.601"/><circle cx="825" cy="975" r="9.53" fill="#e0218a" opacity="0.547"/><circle cx="875" cy="975" r="6.29" fill="#e0218a" opacity="0.411"/><circle cx="925" cy="975" r="6.64" fill="#ffbe0b" opacity="0.426"/><circle cx="975" cy="975" r="5.46" fill="#ffbe0b" opacity="0.376"/><circle cx="1025" cy="975" r="7.32" fill="#ffbe0b" opacity="0.454"/><circle cx="1075" cy="975" r="5.36" fill="#ffbe0b" opacity="0.372"/><circle cx="1125" cy="975" r="5.55" fill="#ffbe0b" opacity="0.380"/><circle cx="1175" cy="975" r="6.54" fill="#ffbe0b" opacity="0.422"/><circle cx="25" cy="1025" r="14.98" fill="#aa0b62" opacity="0.775"/><circle cx="75" cy="1025" r="15.07" fill="#aa0b63" opacity="0.778"/><circle cx="125" cy="1025" r="16.34" fill="#b10b67" opacity="0.832"/><circle cx="175" cy="1025" r="16.43" fill="#b20c67" opacity="0.835"/><circle cx="225" cy="1025" r="15.84" fill="#ae0b65" opacity="0.811"/><circle cx="275" cy="1025" r="17.12" fill="#b50c69" opacity="0.865"/><circle cx="325" cy="1025" r="16.31" fill="#b10b66" opacity="0.830"/><circle cx="375" cy="1025" r="15.7" fill="#ae0b65" opacity="0.805"/><circle cx="425" cy="1025" r="14.78" fill="#a90b62" opacity="0.767"/><circle cx="475" cy="1025" r="13.59" fill="#a20b5e" opacity="0.717"/><circle cx="525" cy="1025" r="14.43" fill="#a70b61" opacity="0.752"/><circle cx="575" cy="1025" r="12.33" fill="#9b0a5a" opacity="0.664"/><circle cx="625" cy="1025" r="13.66" fill="#a30b5e" opacity="0.720"/><circle cx="675" cy="1025" r="12.53" fill="#9c0a5b" opacity="0.672"/><circle cx="725" cy="1025" r="12.01" fill="#990a59" opacity="0.650"/><circle cx="775" cy="1025" r="8.29" fill="#e0218a" opacity="0.495"/><circle cx="825" cy="1025" r="10.11" fill="#e0218a" opacity="0.571"/><circle cx="875" cy="1025" r="5.93" fill="#e0218a" opacity="0.396"/><circle cx="925" cy="1025" r="6.81" fill="#e0218a" opacity="0.433"/><circle cx="975" cy="1025" r="6.43" fill="#ffbe0b" opacity="0.417"/><circle cx="1025" cy="1025" r="4.86" fill="#ffbe0b" opacity="0.351"/><circle cx="1075" cy="1025" r="5.67" fill="#ffbe0b" opacity="0.385"/><circle cx="1125" cy="1025" r="4.22" fill="#ffbe0b" opacity="0.324"/><circle cx="1175" cy="1025" r="4.82" fill="#ffbe0b" opacity="0.349"/><circle cx="25" cy="1075" r="12.65" fill="#9d0a5b" opacity="0.677"/><circle cx="75" cy="1075" r="14.96" fill="#aa0b62" opacity="0.774"/><circle cx="125" cy="1075" r="14.94" fill="#a90b62" opacity="0.773"/><circle cx="175" cy="1075" r="15.21" fill="#ab0b63" opacity="0.784"/><circle cx="225" cy="1075" r="14.87" fill="#a90b62" opacity="0.770"/><circle cx="275" cy="1075" r="14.52" fill="#a70b61" opacity="0.755"/><circle cx="325" cy="1075" r="14.67" fill="#a80b61" opacity="0.762"/><circle cx="375" cy="1075" r="13.89" fill="#a40b5f" opacity="0.729"/><circle cx="425" cy="1075" r="15.54" fill="#ad0b64" opacity="0.798"/><circle cx="475" cy="1075" r="12.47" fill="#9c0a5a" opacity="0.670"/><circle cx="525" cy="1075" r="14.62" fill="#a80b61" opacity="0.760"/><circle cx="575" cy="1075" r="13.71" fill="#a30b5e" opacity="0.722"/><circle cx="625" cy="1075" r="10.48" fill="#e0218a" opacity="0.586"/><circle cx="675" cy="1075" r="11.5" fill="#970a57" opacity="0.629"/><circle cx="725" cy="1075" r="9.18" fill="#e0218a" opacity="0.532"/><circle cx="775" cy="1075" r="8.67" fill="#e0218a" opacity="0.511"/><circle cx="825" cy="1075" r="6.76" fill="#e0218a" opacity="0.431"/><circle cx="875" cy="1075" r="8.11" fill="#e0218a" opacity="0.487"/><circle cx="925" cy="1075" r="6.49" fill="#e0218a" opacity="0.419"/><circle cx="975" cy="1075" r="4.62" fill="#ffbe0b" opacity="0.341"/><circle cx="1025" cy="1075" r="3.87" fill="#ffbe0b" opacity="0.310"/><circle cx="1075" cy="1075" r="4.13" fill="#ffbe0b" opacity="0.321"/><circle cx="1125" cy="1075" r="3.54" fill="#ffbe0b" opacity="0.296"/><circle cx="1175" cy="1075" r="4.2" fill="#ffbe0b" opacity="0.324"/><circle cx="25" cy="1125" r="11.58" fill="#970a57" opacity="0.632"/><circle cx="75" cy="1125" r="14.32" fill="#a60b60" opacity="0.747"/><circle cx="125" cy="1125" r="13.5" fill="#a20a5e" opacity="0.713"/><circle cx="175" cy="1125" r="14.17" fill="#a50b60" opacity="0.741"/><circle cx="225" cy="1125" r="13.69" fill="#a30b5e" opacity="0.721"/><circle cx="275" cy="1125" r="13.42" fill="#a10a5d" opacity="0.709"/><circle cx="325" cy="1125" r="13.68" fill="#a30b5e" opacity="0.720"/><circle cx="375" cy="1125" r="13.62" fill="#a20b5e" opacity="0.718"/><circle cx="425" cy="1125" r="13.8" fill="#a30b5f" opacity="0.725"/><circle cx="475" cy="1125" r="12.65" fill="#9d0a5b" opacity="0.677"/><circle cx="525" cy="1125" r="11.56" fill="#970a57" opacity="0.631"/><circle cx="575" cy="1125" r="10.26" fill="#e0218a" opacity="0.577"/><circle cx="625" cy="1125" r="10.73" fill="#e0218a" opacity="0.597"/><circle cx="675" cy="1125" r="9.79" fill="#e0218a" opacity="0.557"/><circle cx="725" cy="1125" r="8.27" fill="#e0218a" opacity="0.494"/><circle cx="775" cy="1125" r="7.54" fill="#e0218a" opacity="0.463"/><circle cx="825" cy="1125" r="7.62" fill="#e0218a" opacity="0.467"/><circle cx="875" cy="1125" r="7.12" fill="#e0218a" opacity="0.446"/><circle cx="925" cy="1125" r="6.87" fill="#e0218a" opacity="0.435"/><circle cx="975" cy="1125" r="4.81" fill="#e0218a" opacity="0.349"/><circle cx="1025" cy="1125" r="3.26" fill="#ffbe0b" opacity="0.284"/><circle cx="1075" cy="1125" r="3.22" fill="#ffbe0b" opacity="0.282"/><circle cx="1125" cy="1125" r="3.78" fill="#ffbe0b" opacity="0.306"/><circle cx="1175" cy="1125" r="2.85" fill="#ffbe0b" opacity="0.267"/><circle cx="25" cy="1175" r="12.18" fill="#9a0a59" opacity="0.657"/><circle cx="75" cy="1175" r="11.14" fill="#e0218a" opacity="0.614"/><circle cx="125" cy="1175" r="12.63" fill="#9d0a5b" opacity="0.676"/><circle cx="175" cy="1175" r="11.63" fill="#970a58" opacity="0.634"/><circle cx="225" cy="1175" r="14.43" fill="#a70b61" opacity="0.752"/><circle cx="275" cy="1175" r="13.93" fill="#a40b5f" opacity="0.731"/><circle cx="325" cy="1175" r="11.85" fill="#990a58" opacity="0.644"/><circle cx="375" cy="1175" r="11.82" fill="#980a58" opacity="0.642"/><circle cx="425" cy="1175" r="13.51" fill="#a20a5e" opacity="0.713"/><circle cx="475" cy="1175" r="12.33" fill="#9b0a5a" opacity="0.664"/><circle cx="525" cy="1175" r="10.64" fill="#e0218a" opacity="0.593"/><circle cx="575" cy="1175" r="9.16" fill="#e0218a" opacity="0.531"/><circle cx="625" cy="1175" r="12.08" fill="#9a0a59" opacity="0.653"/><circle cx="675" cy="1175" r="9.56" fill="#e0218a" opacity="0.548"/><circle cx="725" cy="1175" r="9.55" fill="#e0218a" opacity="0.548"/><circle cx="775" cy="1175" r="9.02" fill="#e0218a" opacity="0.525"/><circle cx="825" cy="1175" r="7.11" fill="#e0218a" opacity="0.445"/><circle cx="875" cy="1175" r="7.29" fill="#e0218a" opacity="0.453"/><circle cx="925" cy="1175" r="5.48" fill="#e0218a" opacity="0.377"/><circle cx="975" cy="1175" r="3.38" fill="#e0218a" opacity="0.289"/><circle cx="1025" cy="1175" r="2.69" fill="#e0218a" opacity="0.260"/><circle cx="1075" cy="1175" r="2.91" fill="#ffbe0b" opacity="0.269"/><circle cx="1125" cy="1175" r="2.44" fill="#ffbe0b" opacity="0.250"/><circle cx="1175" cy="1175" r="2.44" fill="#ffbe0b" opacity="0.250"/></g></svg>