<svg xmlns="http://www.w3.org/2000/svg" viewBox="0 0 1200 630" width="1200" height="630" preserveAspectRatio="xMidYMid slice" role="img" aria-label="dots artwork"><defs><linearGradient id="prismbq36ue5-bg" x1="0.24" y1="0.93" x2="0.76" y2="0.07"><stop offset="0" stop-color="#32a27d"/><stop offset="1" stop-color="#2c906f"/></linearGradient><radialGradient id="prismbq36ue5-halo" cx="0.75" cy="0.68" r="0.55"><stop offset="0" stop-color="#2d6a4f" stop-opacity="0.6"/><stop offset="1" stop-color="#2d6a4f" stop-opacity="0"/></radialGradient></defs><rect x="0" y="0" width="1200" height="630" fill="url(#prismbq36ue5-bg)"/><rect x="0" y="0" width="1200" height="630" fill="url(#prismbq36ue5-halo)"/><g><circle cx="21.43" cy="21" r="8.62" fill="#00997a" opacity="0.504"/><circle cx="64.29" cy="21" r="9.04" fill="#00997a" opacity="0.521"/><circle cx="107.14" cy="21" r="9.76" fill="#00997a" opacity="0.551"/><circle cx="150" cy="21" r="11.54" fill="#00997a" opacity="0.624"/><circle cx="192.86" cy="21" r="13.24" fill="#079377" opacity="0.694"/><circle cx="235.71" cy="21" r="12.47" fill="#068f73" opacity="0.663"/><circle cx="278.57" cy="21" r="11.8" fill="#068c71" opacity="0.635"/><circle cx="321.43" cy="21" r="13.2" fill="#079377" opacity="0.693"/><circle cx="364.29" cy="21" r="13.97" fill="#07977a" opacity="0.725"/><circle cx="407.14" cy="21" r="10.67" fill="#00997a" opacity="0.588"/><circle cx="450" cy="21" r="12.63" fill="#069074" opacity="0.669"/><circle cx="492.86" cy="21" r="10.46" fill="#00997a" opacity="0.580"/><circle cx="535.71" cy="21" r="9.98" fill="#00997a" opacity="0.560"/><circle cx="578.57" cy="21" r="8.38" fill="#00997a" opacity="0.494"/><circle cx="621.43" cy="21" r="8.64" fill="#00997a" opacity="0.505"/><circle cx="664.29" cy="21" r="10.3" fill="#00997a" opacity="0.573"/><circle cx="707.14" cy="21" r="9.72" fill="#00997a" opacity="0.549"/><circle cx="750" cy="21" r="7.87" fill="#00997a" opacity="0.473"/><circle cx="792.86" cy="21" r="8.29" fill="#00997a" opacity="0.490"/><circle cx="835.71" cy="21" r="4.74" fill="#00997a" opacity="0.343"/><circle cx="878.57" cy="21" r="3.69" fill="#00997a" opacity="0.300"/><circle cx="921.43" cy="21" r="4.65" fill="#00997a" opacity="0.340"/><circle cx="964.29" cy="21" r="3.3" fill="#00997a" opacity="0.284"/><circle cx="1007.14" cy="21" r="2.48" fill="#2d6a4f" opacity="0.250"/><circle cx="1050" cy="21" r="2.48" fill="#2d6a4f" opacity="0.250"/><circle cx="1092.86" cy="21" r="2.48" fill="#2d6a4f" opacity="0.250"/><circle cx="1135.71" cy="21" r="2.48" fill="#2d6a4f" opacity="0.250"/><circle cx="1178.57" cy="21" r="2.48" fill="#2d6a4f" opacity="0.250"/><circle cx="21.43" cy="63" r="11.15" fill="#00997a" opacity="0.608"/><circle cx="64.29" cy="63" r="10.93" fill="#00997a" opacity="0.599"/><circle cx="107.14" cy="63" r="12.29" fill="#068e73" opacity="0.655"/><circle cx="150" cy="63" r="12.96" fill="#069276" opacity="0.683"/><circle cx="192.86" cy="63" r="14.96" fill="#079d7f" opacity="0.766"/><circle cx="235.71" cy="63" r="14.55" fill="#079b7d" opacity="0.749"/><circle cx="278.57" cy="63" r="14.74" fill="#079c7e" opacity="0.756"/><circle cx="321.43" cy="63" r="12.85" fill="#069175" opacity="0.678"/><circle cx="364.29" cy="63" r="14.32" fill="#07997c" opacity="0.739"/><circle cx="407.14" cy="63" r="14.99" fill="#079d7f" opacity="0.767"/><circle cx="450" cy="63" r="13.29" fill="#079477" opacity="0.697"/><circle cx="492.86" cy="63" r="13.02" fill="#069276" opacity="0.686"/><circle cx="535.71" cy="63" r="10.38" fill="#00997a" opacity="0.576"/><circle cx="578.57" cy="63" r="12.26" fill="#068e73" opacity="0.654"/><circle cx="621.43" cy="63" r="9.7" fill="#00997a" opacity="0.548"/><circle cx="664.29" cy="63" r="9.31" fill="#00997a" opacity="0.532"/><circle cx="707.14" cy="63" r="9.87" fill="#00997a" opacity="0.555"/><circle cx="750" cy="63" r="7.63" fill="#00997a" opacity="0.463"/><circle cx="792.86" cy="63" r="6.1" fill="#00997a" opacity="0.399"/><circle cx="835.71" cy="63" r="7.47" fill="#00997a" opacity="0.456"/><circle cx="878.57" cy="63" r="5.1" fill="#00997a" opacity="0.358"/><circle cx="921.43" cy="63" r="4" fill="#00997a" opacity="0.313"/><circle cx="964.29" cy="63" r="3.67" fill="#2d6a4f" opacity="0.299"/><circle cx="1007.14" cy="63" r="5.36" fill="#2d6a4f" opacity="0.369"/><circle cx="1050" cy="63" r="3.85" fill="#2d6a4f" opacity="0.307"/><circle cx="1092.86" cy="63" r="3.12" fill="#2d6a4f" opacity="0.277"/><circle cx="1135.71" cy="63" r="2.87" fill="#2d6a4f" opacity="0.266"/><circle cx="1178.57" cy="63" r="2.96" fill="#2d6a4f" opacity="0.270"/><circle cx="21.43" cy="105" r="12.21" fill="#068e72" opacity="0.652"/><circle cx="64.29" cy="105" r="14.34" fill="#07997c" opacity="0.740"/><circle cx="107.14" cy="105" r="15.11" fill="#079e7f" opacity="0.772"/><circle cx="150" cy="105" r="14.09" fill="#07987b" opacity="0.730"/><circle cx="192.86" cy="105" r="14.55" fill="#079b7d" opacity="0.749"/><circle cx="235.71" cy="105" r="16.46" fill="#07a585" opacity="0.828"/><circle cx="278.57" cy="105" r="15.76" fill="#07a182" opacity="0.799"/><circle cx="321.43" cy="105" r="16.69" fill="#07a686" opacity="0.837"/><circle cx="364.29" cy="105" r="14.97" fill="#079d7f" opacity="0.766"/><circle cx="407.14" cy="105" r="16.03" fill="#07a383" opacity="0.810"/><circle cx="450" cy="105" r="15.6" fill="#07a081" opacity="0.792"/><circle cx="492.86" cy="105" r="14.51" fill="#079a7d" opacity="0.747"/><circle cx="535.71" cy="105" r="13.77" fill="#079679" opacity="0.716"/><circle cx="578.57" cy="105" r="12.42" fill="#068f73" opacity="0.661"/><circle cx="621.43" cy="105" r="10.74" fill="#00997a" opacity="0.591"/><circle cx="664.29" cy="105" r="10.99" fill="#00997a" opacity="0.602"/><circle cx="707.14" cy="105" r="9.36" fill="#00997a" opacity="0.534"/><circle cx="750" cy="105" r="8.93" fill="#00997a" opacity="0.517"/><circle cx="792.86" cy="105" r="7.78" fill="#00997a" opacity="0.469"/><circle cx="835.71" cy="105" r="8.38" fill="#00997a" opacity="0.494"/><circle cx="878.57" cy="105" r="7.57" fill="#00997a" opacity="0.460"/><circle cx="921.43" cy="105" r="5.39" fill="#2d6a4f" opacity="0.370"/><circle cx="964.29" cy="105" r="7.63" fill="#2d6a4f" opacity="0.463"/><circle cx="1007.14" cy="105" r="5.3" fill="#2d6a4f" opacity="0.367"/><circle cx="1050" cy="105" r="4.85" fill="#2d6a4f" opacity="0.348"/><circle cx="1092.86" cy="105" r="4.48" fill="#2d6a4f" opacity="0.333"/><circle cx="1135.71" cy="105" r="4.07" fill="#2d6a4f" opacity="0.316"/><circle cx="1178.57" cy="105" r="5.37" fill="#2d6a4f" opacity="0.370"/><circle cx="21.43" cy="147" r="13.6" fill="#079578" opacity="0.709"/><circle cx="64.29" cy="147" r="15" fill="#079d7f" opacity="0.767"/><circle cx="107.14" cy="147" r="16.36" fill="#07a585" opacity="0.824"/><circle cx="150" cy="147" r="15.24" fill="#079e80" opacity="0.777"/><circle cx="192.86" cy="147" r="16.6" fill="#07a686" opacity="0.833"/><circle cx="235.71" cy="147" r="17.53" fill="#08ab8a" opacity="0.872"/><circle cx="278.57" cy="147" r="17.33" fill="#08aa89" opacity="0.864"/><circle cx="321.43" cy="147" r="17.78" fill="#08ac8b" opacity="0.882"/><circle cx="364.29" cy="147" r="17.06" fill="#07a888" opacity="0.852"/><circle cx="407.14" cy="147" r="16.74" fill="#07a786" opacity="0.839"/><circle cx="450" cy="147" r="16.71" fill="#07a686" opacity="0.838"/><circle cx="492.86" cy="147" r="15.9" fill="#07a283" opacity="0.804"/><circle cx="535.71" cy="147" r="15.18" fill="#079e7f" opacity="0.775"/><circle cx="578.57" cy="147" r="11.92" fill="#068c71" opacity="0.640"/><circle cx="621.43" cy="147" r="11.85" fill="#068c71" opacity="0.637"/><circle cx="664.29" cy="147" r="10.09" fill="#00997a" opacity="0.564"/><circle cx="707.14" cy="147" r="9.57" fill="#00997a" opacity="0.543"/><circle cx="750" cy="147" r="8.07" fill="#00997a" opacity="0.481"/><circle cx="792.86" cy="147" r="10.29" fill="#00997a" opacity="0.573"/><circle cx="835.71" cy="147" r="8.71" fill="#2d6a4f" opacity="0.508"/><circle cx="878.57" cy="147" r="6.59" fill="#2d6a4f" opacity="0.420"/><circle cx="921.43" cy="147" r="7.88" fill="#2d6a4f" opacity="0.473"/><circle cx="964.29" cy="147" r="8.22" fill="#2d6a4f" opacity="0.487"/><circle cx="1007.14" cy="147" r="6.04" fill="#2d6a4f" opacity="0.397"/><circle cx="1050" cy="147" r="7" fill="#2d6a4f" opacity="0.437"/><circle cx="1092.86" cy="147" r="8.76" fill="#2d6a4f" opacity="0.509"/><circle cx="1135.71" cy="147" r="6.47" fill="#2d6a4f" opacity="0.415"/><circle cx="1178.57" cy="147" r="7.55" fill="#2d6a4f" opacity="0.460"/><circle cx="21.43" cy="189" r="15.2" fill="#079e80" opacity="0.775"/><circle cx="64.29" cy="189" r="13.68" fill="#079679" opacity="0.713"/><circle cx="107.14" cy="189" r="15.16" fill="#079e7f" opacity="0.774"/><circle cx="150" cy="189" r="16.17" fill="#07a484" opacity="0.816"/><circle cx="192.86" cy="189" r="18.42" fill="#08b08e" opacity="0.908"/><circle cx="235.71" cy="189" r="18.49" fill="#08b08e" opacity="0.911"/><circle cx="278.57" cy="189" r="20.02" fill="#08b995" opacity="0.975"/><circle cx="321.43" cy="189" r="19.93" fill="#08b894" opacity="0.971"/><circle cx="364.29" cy="189" r="18.71" fill="#08b18f" opacity="0.921"/><circle cx="407.14" cy="189" r="18.18" fill="#08af8d" opacity="0.899"/><circle cx="450" cy="189" r="16.04" fill="#07a383" opacity="0.810"/><circle cx="492.86" cy="189" r="16.78" fill="#07a787" opacity="0.841"/><circle cx="535.71" cy="189" r="15.5" fill="#07a081" opacity="0.788"/><circle cx="578.57" cy="189" r="13.18" fill="#079377" opacity="0.692"/><circle cx="621.43" cy="189" r="11.46" fill="#00997a" opacity="0.621"/><circle cx="664.29" cy="189" r="11.75" fill="#068b70" opacity="0.633"/><circle cx="707.14" cy="189" r="11.03" fill="#00997a" opacity="0.603"/><circle cx="750" cy="189" r="11.65" fill="#068b70" opacity="0.629"/><circle cx="792.86" cy="189" r="7.77" fill="#2d6a4f" opacity="0.469"/><circle cx="835.71" cy="189" r="11.18" fill="#2d6a4f" opacity="0.610"/><circle cx="878.57" cy="189" r="8.85" fill="#2d6a4f" opacity="0.513"/><circle cx="921.43" cy="189" r="8.52" fill="#2d6a4f" opacity="0.499"/><circle cx="964.29" cy="189" r="10.66" fill="#2d6a4f" opacity="0.588"/><circle cx="1007.14" cy="189" r="10.4" fill="#2d6a4f" opacity="0.577"/><circle cx="1050" cy="189" r="8.11" fill="#2d6a4f" opacity="0.483"/><circle cx="1092.86" cy="189" r="9.66" fill="#2d6a4f" opacity="0.547"/><circle cx="1135.71" cy="189" r="7.75" fill="#2d6a4f" opacity="0.468"/><circle cx="1178.57" cy="189" r="6.42" fill="#2d6a4f" opacity="0.413"/><circle cx="21.43" cy="231" r="15.26" fill="#079f80" opacity="0.778"/><circle cx="64.29" cy="231" r="14.29" fill="#07997c" opacity="0.738"/><circle cx="107.14" cy="231" r="16.42" fill="#07a585" opacity="0.826"/><circle cx="150" cy="231" r="17" fill="#07a888" opacity="0.850"/><circle cx="192.86" cy="231" r="17.38" fill="#08aa89" opacity="0.866"/><circle cx="235.71" cy="231" r="18.78" fill="#08b28f" opacity="0.923"/><circle cx="278.57" cy="231" r="19.31" fill="#08b592" opacity="0.945"/><circle cx="321.43" cy="231" r="19.01" fill="#08b390" opacity="0.933"/><circle cx="364.29" cy="231" r="18.35" fill="#08af8d" opacity="0.905"/><circle cx="407.14" cy="231" r="17.07" fill="#07a888" opacity="0.853"/><circle cx="450" cy="231" r="17.52" fill="#08ab8a" opacity="0.871"/><circle cx="492.86" cy="231" r="16.56" fill="#07a686" opacity="0.832"/><circle cx="535.71" cy="231" r="14.14" fill="#07987b" opacity="0.732"/><circle cx="578.57" cy="231" r="13.92" fill="#07977a" opacity="0.723"/><circle cx="621.43" cy="231" r="12.68" fill="#069074" opacity="0.672"/><circle cx="664.29" cy="231" r="12.83" fill="#069175" opacity="0.678"/><circle cx="707.14" cy="231" r="12.74" fill="#069175" opacity="0.674"/><circle cx="750" cy="231" r="10.97" fill="#2d6a4f" opacity="0.601"/><circle cx="792.86" cy="231" r="11.2" fill="#2d6a4f" opacity="0.610"/><circle cx="835.71" cy="231" r="12.4" fill="#0d8851" opacity="0.660"/><circle cx="878.57" cy="231" r="10.41" fill="#2d6a4f" opacity="0.578"/><circle cx="921.43" cy="231" r="12.42" fill="#0d8852" opacity="0.661"/><circle cx="964.29" cy="231" r="9.79" fill="#2d6a4f" opacity="0.552"/><circle cx="1007.14" cy="231" r="11.57" fill="#0d844f" opacity="0.626"/><circle cx="1050" cy="231" r="11.64" fill="#0d844f" opacity="0.629"/><circle cx="1092.86" cy="231" r="9.12" fill="#2d6a4f" opacity="0.525"/><circle cx="1135.71" cy="231" r="11.44" fill="#2d6a4f" opacity="0.620"/><circle cx="1178.57" cy="231" r="9.46" fill="#2d6a4f" opacity="0.539"/><circle cx="21.43" cy="273" r="14.78" fill="#079c7e" opacity="0.758"/><circle cx="64.29" cy="273" r="14.55" fill="#079b7d" opacity="0.749"/><circle cx="107.14" cy="273" r="15.51" fill="#07a081" opacity="0.788"/><circle cx="150" cy="273" r="14.74" fill="#079c7e" opacity="0.756"/><circle cx="192.86" cy="273" r="16.25" fill="#07a484" opacity="0.819"/><circle cx="235.71" cy="273" r="16.92" fill="#07a887" opacity="0.847"/><circle cx="278.57" cy="273" r="16.9" fill="#07a887" opacity="0.846"/><circle cx="321.43" cy="273" r="17.34" fill="#08aa89" opacity="0.864"/><circle cx="364.29" cy="273" r="17.43" fill="#08aa89" opacity="0.868"/><circle cx="407.14" cy="273" r="16.55" fill="#07a686" opacity="0.831"/><circle cx="450" cy="273" r="14.63" fill="#079b7d" opacity="0.752"/><circle cx="492.86" cy="273" r="15.75" fill="#07a182" opacity="0.798"/><circle cx="535.71" cy="273" r="14.63" fill="#079b7d" opacity="0.752"/><circle cx="578.57" cy="273" r="13.57" fill="#079578" opacity="0.708"/><circle cx="621.43" cy="273" r="12.86" fill="#069175" opacity="0.679"/><circle cx="664.29" cy="273" r="11.33" fill="#2d6a4f" opacity="0.616"/><circle cx="707.14" cy="273" r="13.55" fill="#0e8e55" opacity="0.707"/><circle cx="750" cy="273" r="11.85" fill="#0d8550" opacity="0.637"/><circle cx="792.86" cy="273" r="14.23" fill="#0e9157" opacity="0.735"/><circle cx="835.71" cy="273" r="13.62" fill="#0e8e55" opacity="0.710"/><circle cx="878.57" cy="273" r="14.04" fill="#0e9057" opacity="0.728"/><circle cx="921.43" cy="273" r="12.45" fill="#0d8852" opacity="0.662"/><circle cx="964.29" cy="273" r="14.3" fill="#0e9257" opacity="0.738"/><circle cx="1007.14" cy="273" r="11.86" fill="#0d8550" opacity="0.637"/><circle cx="1050" cy="273" r="13.05" fill="#0d8b54" opacity="0.687"/><circle cx="1092.86" cy="273" r="12.67" fill="#0d8952" opacity="0.671"/><circle cx="1135.71" cy="273" r="12.49" fill="#0d8852" opacity="0.664"/><circle cx="1178.57" cy="273" r="11.08" fill="#2d6a4f" opacity="0.605"/><circle cx="21.43" cy="315" r="13.59" fill="#079578" opacity="0.709"/><circle cx="64.29" cy="315" r="11.6" fill="#068a70" opacity="0.627"/><circle cx="107.14" cy="315" r="12.13" fill="#068d72" opacity="0.649"/><circle cx="150" cy="315" r="15.52" fill="#07a081" opacity="0.789"/><circle cx="192.86" cy="315" r="13.75" fill="#079679" opacity="0.716"/><circle cx="235.71" cy="315" r="14.26" fill="#07997b" opacity="0.737"/><circle cx="278.57" cy="315" r="16.39" fill="#07a585" opacity="0.825"/><circle cx="321.43" cy="315" r="15.28" fill="#079f80" opacity="0.779"/><circle cx="364.29" cy="315" r="15.89" fill="#07a283" opacity="0.804"/><circle cx="407.14" cy="315" r="15.52" fill="#07a081" opacity="0.789"/><circle cx="450" cy="315" r="13.76" fill="#079679" opacity="0.716"/><circle cx="492.86" cy="315" r="13.88" fill="#07977a" opacity="0.721"/><circle cx="535.71" cy="315" r="14.07" fill="#07987b" opacity="0.729"/><circle cx="578.57" cy="315" r="11.91" fill="#068c71" opacity="0.640"/><circle cx="621.43" cy="315" r="12.89" fill="#0d8a53" opacity="0.680"/><circle cx="664.29" cy="315" r="14.62" fill="#0e9458" opacity="0.752"/><circle cx="707.14" cy="315" r="14.11" fill="#0e9157" opacity="0.731"/><circle cx="750" cy="315" r="15.13" fill="#0e965a" opacity="0.773"/><circle cx="792.86" cy="315" r="13.84" fill="#0e8f56" opacity="0.719"/><circle cx="835.71" cy="315" r="14.68" fill="#0e9459" opacity="0.754"/><circle cx="878.57" cy="315" r="14.7" fill="#0e9459" opacity="0.755"/><circle cx="921.43" cy="315" r="14.41" fill="#0e9258" opacity="0.743"/><circle cx="964.29" cy="315" r="16.01" fill="#0f9b5d" opacity="0.809"/><circle cx="1007.14" cy="315" r="14.16" fill="#0e9157" opacity="0.733"/><circle cx="1050" cy="315" r="15.17" fill="#0e965a" opacity="0.774"/><circle cx="1092.86" cy="315" r="13.07" fill="#0d8b54" opacity="0.687"/><circle cx="1135.71" cy="315" r="11.52" fill="#2d6a4f" opacity="0.624"/><circle cx="1178.57" cy="315" r="10.92" fill="#2d6a4f" opacity="0.599"/><circle cx="21.43" cy="357" r="11.49" fill="#00997a" opacity="0.622"/><circle cx="64.29" cy="357" r="12.71" fill="#069175" opacity="0.673"/><circle cx="107.14" cy="357" r="13.82" fill="#079779" opacity="0.719"/><circle cx="150" cy="357" r="12.7" fill="#069075" opacity="0.672"/><circle cx="192.86" cy="357" r="14.06" fill="#07987a" opacity="0.728"/><circle cx="235.71" cy="357" r="12.76" fill="#069175" opacity="0.675"/><circle cx="278.57" cy="357" r="14.07" fill="#07987b" opacity="0.729"/><circle cx="321.43" cy="357" r="14.79" fill="#079c7e" opacity="0.758"/><circle cx="364.29" cy="357" r="12.19" fill="#068e72" opacity="0.651"/><circle cx="407.14" cy="357" r="11.78" fill="#068b70" opacity="0.634"/><circle cx="450" cy="357" r="11.64" fill="#068b70" opacity="0.629"/><circle cx="492.86" cy="357" r="12.35" fill="#068f73" opacity="0.658"/><circle cx="535.71" cy="357" r="11.67" fill="#068b70" opacity="0.630"/><circle cx="578.57" cy="357" r="12.24" fill="#0d8751" opacity="0.653"/><circle cx="621.43" cy="357" r="14.83" fill="#0e9559" opacity="0.760"/><circle cx="664.29" cy="357" r="14.86" fill="#0e9559" opacity="0.761"/><circle cx="707.14" cy="357" r="14.35" fill="#0e9258" opacity="0.741"/><circle cx="750" cy="357" r="16.88" fill="#0f9f60" opacity="0.845"/><circle cx="792.86" cy="357" r="15.95" fill="#0f9a5d" opacity="0.807"/><circle cx="835.71" cy="357" r="17.06" fill="#0fa060" opacity="0.852"/><circle cx="878.57" cy="357" r="17" fill="#0fa060" opacity="0.850"/><circle cx="921.43" cy="357" r="17.63" fill="#10a362" opacity="0.876"/><circle cx="964.29" cy="357" r="16.51" fill="#0f9d5e" opacity="0.830"/><circle cx="1007.14" cy="357" r="16.44" fill="#0f9d5e" opacity="0.827"/><circle cx="1050" cy="357" r="15.37" fill="#0e975b" opacity="0.782"/><circle cx="1092.86" cy="357" r="13.7" fill="#0e8f56" opacity="0.713"/><circle cx="1135.71" cy="357" r="12.65" fill="#0d8952" opacity="0.670"/><circle cx="1178.57" cy="357" r="14.41" fill="#0e9258" opacity="0.743"/><circle cx="21.43" cy="399" r="9.3" fill="#00997a" opacity="0.532"/><circle cx="64.29" cy="399" r="11.14" fill="#00997a" opacity="0.608"/><circle cx="107.14" cy="399" r="11.56" fill="#00997a" opacity="0.625"/><circle cx="150" cy="399" r="12.43" fill="#068f73" opacity="0.661"/><circle cx="192.86" cy="399" r="11.03" fill="#00997a" opacity="0.603"/><circle cx="235.71" cy="399" r="11.91" fill="#068c71" opacity="0.639"/><circle cx="278.57" cy="399" r="12.26" fill="#068e73" opacity="0.654"/><circle cx="321.43" cy="399" r="11.31" fill="#00997a" opacity="0.615"/><circle cx="364.29" cy="399" r="12.68" fill="#069074" opacity="0.671"/><circle cx="407.14" cy="399" r="10.67" fill="#00997a" opacity="0.589"/><circle cx="450" cy="399" r="9.77" fill="#00997a" opacity="0.551"/><circle cx="492.86" cy="399" r="11.73" fill="#0d844f" opacity="0.632"/><circle cx="535.71" cy="399" r="10.71" fill="#2d6a4f" opacity="0.590"/><circle cx="578.57" cy="399" r="12.34" fill="#0d8851" opacity="0.658"/><circle cx="621.43" cy="399" r="13.54" fill="#0e8e55" opacity="0.707"/><circle cx="664.29" cy="399" r="15.12" fill="#0e965a" opacity="0.772"/><circle cx="707.14" cy="399" r="15.79" fill="#0f9a5c" opacity="0.800"/><circle cx="750" cy="399" r="17.51" fill="#10a361" opacity="0.871"/><circle cx="792.86" cy="399" r="17.07" fill="#0fa060" opacity="0.853"/><circle cx="835.71" cy="399" r="18.77" fill="#10a965" opacity="0.923"/><circle cx="878.57" cy="399" r="19.54" fill="#11ad68" opacity="0.955"/><circle cx="921.43" cy="399" r="18.92" fill="#10aa66" opacity="0.929"/><circle cx="964.29" cy="399" r="18.83" fill="#10aa66" opacity="0.925"/><circle cx="1007.14" cy="399" r="17.3" fill="#0fa261" opacity="0.862"/><circle cx="1050" cy="399" r="17.14" fill="#0fa160" opacity="0.855"/><circle cx="1092.86" cy="399" r="15.01" fill="#0e965a" opacity="0.768"/><circle cx="1135.71" cy="399" r="14.76" fill="#0e9459" opacity="0.757"/><circle cx="1178.57" cy="399" r="12.71" fill="#0d8a52" opacity="0.673"/><circle cx="21.43" cy="441" r="8.94" fill="#00997a" opacity="0.517"/><circle cx="64.29" cy="441" r="9.06" fill="#00997a" opacity="0.522"/><circle cx="107.14" cy="441" r="8.24" fill="#00997a" opacity="0.488"/><circle cx="150" cy="441" r="10.29" fill="#00997a" opacity="0.573"/><circle cx="192.86" cy="441" r="10.62" fill="#00997a" opacity="0.587"/><circle cx="235.71" cy="441" r="10.84" fill="#00997a" opacity="0.595"/><circle cx="278.57" cy="441" r="10.43" fill="#00997a" opacity="0.578"/><circle cx="321.43" cy="441" r="9.68" fill="#00997a" opacity="0.548"/><circle cx="364.29" cy="441" r="11.22" fill="#00997a" opacity="0.611"/><circle cx="407.14" cy="441" r="8.12" fill="#00997a" opacity="0.483"/><circle cx="450" cy="441" r="8.13" fill="#2d6a4f" opacity="0.484"/><circle cx="492.86" cy="441" r="10.74" fill="#2d6a4f" opacity="0.591"/><circle cx="535.71" cy="441" r="13.13" fill="#0d8c54" opacity="0.690"/><circle cx="578.57" cy="441" r="12.58" fill="#0d8952" opacity="0.667"/><circle cx="621.43" cy="441" r="12.52" fill="#0d8852" opacity="0.665"/><circle cx="664.29" cy="441" r="14.72" fill="#0e9459" opacity="0.756"/><circle cx="707.14" cy="441" r="16.34" fill="#0f9c5e" opacity="0.823"/><circle cx="750" cy="441" r="16.85" fill="#0f9f5f" opacity="0.844"/><circle cx="792.86" cy="441" r="18.12" fill="#10a663" opacity="0.896"/><circle cx="835.71" cy="441" r="18.71" fill="#10a965" opacity="0.920"/><circle cx="878.57" cy="441" r="19.85" fill="#11af69" opacity="0.968"/><circle cx="921.43" cy="441" r="19.83" fill="#11af69" opacity="0.967"/><circle cx="964.29" cy="441" r="18.68" fill="#10a965" opacity="0.919"/><circle cx="1007.14" cy="441" r="18.21" fill="#10a664" opacity="0.900"/><circle cx="1050" cy="441" r="16.1" fill="#0f9b5d" opacity="0.813"/><circle cx="1092.86" cy="441" r="16.14" fill="#0f9b5d" opacity="0.814"/><circle cx="1135.71" cy="441" r="14.25" fill="#0e9257" opacity="0.736"/><circle cx="1178.57" cy="441" r="13.72" fill="#0e8f56" opacity="0.715"/><circle cx="21.43" cy="483" r="6.08" fill="#00997a" opacity="0.399"/><circle cx="64.29" cy="483" r="6.12" fill="#00997a" opacity="0.400"/><circle cx="107.14" cy="483" r="7.17" fill="#00997a" opacity="0.444"/><circle cx="150" cy="483" r="8.08" fill="#00997a" opacity="0.481"/><circle cx="192.86" cy="483" r="7.26" fill="#00997a" opacity="0.448"/><circle cx="235.71" cy="483" r="7.02" fill="#00997a" opacity="0.438"/><circle cx="278.57" cy="483" r="8.75" fill="#00997a" opacity="0.509"/><circle cx="321.43" cy="483" r="8.65" fill="#00997a" opacity="0.505"/><circle cx="364.29" cy="483" r="7.19" fill="#00997a" opacity="0.445"/><circle cx="407.14" cy="483" r="9.76" fill="#2d6a4f" opacity="0.551"/><circle cx="450" cy="483" r="10.91" fill="#2d6a4f" opacity="0.598"/><circle cx="492.86" cy="483" r="10.57" fill="#2d6a4f" opacity="0.584"/><circle cx="535.71" cy="483" r="11.36" fill="#2d6a4f" opacity="0.617"/><circle cx="578.57" cy="483" r="13.27" fill="#0d8c54" opacity="0.696"/><circle cx="621.43" cy="483" r="13.23" fill="#0d8c54" opacity="0.694"/><circle cx="664.29" cy="483" r="14.8" fill="#0e9459" opacity="0.759"/><circle cx="707.14" cy="483" r="14.92" fill="#0e9559" opacity="0.764"/><circle cx="750" cy="483" r="16.35" fill="#0f9d5e" opacity="0.823"/><circle cx="792.86" cy="483" r="17.8" fill="#10a462" opacity="0.883"/><circle cx="835.71" cy="483" r="17.41" fill="#0fa261" opacity="0.867"/><circle cx="878.57" cy="483" r="18.12" fill="#10a663" opacity="0.896"/><circle cx="921.43" cy="483" r="17.49" fill="#10a361" opacity="0.870"/><circle cx="964.29" cy="483" r="18.28" fill="#10a764" opacity="0.903"/><circle cx="1007.14" cy="483" r="16.39" fill="#0f9d5e" opacity="0.825"/><circle cx="1050" cy="483" r="16.98" fill="#0fa060" opacity="0.849"/><circle cx="1092.86" cy="483" r="14.93" fill="#0e9559" opacity="0.764"/><circle cx="1135.71" cy="483" r="15.06" fill="#0e965a" opacity="0.770"/><circle cx="1178.57" cy="483" r="13.13" fill="#0d8c54" opacity="0.690"/><circle cx="21.43" cy="525" r="4.23" fill="#00997a" opacity="0.322"/><circle cx="64.29" cy="525" r="4.76" fill="#00997a" opacity="0.344"/><circle cx="107.14" cy="525" r="7.15" fill="#00997a" opacity="0.443"/><circle cx="150" cy="525" r="6.01" fill="#00997a" opacity="0.396"/><circle cx="192.86" cy="525" r="4.63" fill="#00997a" opacity="0.339"/><circle cx="235.71" cy="525" r="4.89" fill="#00997a" opacity="0.350"/><circle cx="278.57" cy="525" r="5.08" fill="#00997a" opacity="0.357"/><circle cx="321.43" cy="525" r="5.86" fill="#2d6a4f" opacity="0.390"/><circle cx="364.29" cy="525" r="6.38" fill="#2d6a4f" opacity="0.411"/><circle cx="407.14" cy="525" r="6.67" fill="#2d6a4f" opacity="0.423"/><circle cx="450" cy="525" r="8.12" fill="#2d6a4f" opacity="0.483"/><circle cx="492.86" cy="525" r="10.18" fill="#2d6a4f" opacity="0.568"/><circle cx="535.71" cy="525" r="11.41" fill="#2d6a4f" opacity="0.619"/><circle cx="578.57" cy="525" r="10.53" fill="#2d6a4f" opacity="0.583"/><circle cx="621.43" cy="525" r="11.68" fill="#0d844f" opacity="0.630"/><circle cx="664.29" cy="525" r="13.25" fill="#0d8c54" opacity="0.695"/><circle cx="707.14" cy="525" r="13.58" fill="#0e8e55" opacity="0.708"/><circle cx="750" cy="525" r="15.48" fill="#0f985b" opacity="0.787"/><circle cx="792.86" cy="525" r="16.03" fill="#0f9b5d" opacity="0.810"/><circle cx="835.71" cy="525" r="15.45" fill="#0f985b" opacity="0.786"/><circle cx="878.57" cy="525" r="16.52" fill="#0f9d5e" opacity="0.830"/><circle cx="921.43" cy="525" r="15.27" fill="#0e975a" opacity="0.778"/><circle cx="964.29" cy="525" r="16.23" fill="#0f9c5d" opacity="0.818"/><circle cx="1007.14" cy="525" r="16.13" fill="#0f9b5d" opacity="0.814"/><circle cx="1050" cy="525" r="13.53" fill="#0e8e55" opacity="0.706"/><circle cx="1092.86" cy="525" r="15.09" fill="#0e965a" opacity="0.771"/><circle cx="1135.71" cy="525" r="13.05" fill="#0d8b54" opacity="0.687"/><circle cx="1178.57" cy="525" r="11.53" fill="#2d6a4f" opacity="0.624"/><circle cx="21.43" cy="567" r="2.68" fill="#00997a" opacity="0.258"/><circle cx="64.29" cy="567" r="2.96" fill="#00997a" opacity="0.270"/><circle cx="107.14" cy="567" r="3.99" fill="#00997a" opacity="0.312"/><circle cx="150" cy="567" r="3.93" fill="#00997a" opacity="0.310"/><circle cx="192.86" cy="567" r="4.51" fill="#00997a" opacity="0.334"/><circle cx="235.71" cy="567" r="3.45" fill="#00997a" opacity="0.290"/><circle cx="278.57" cy="567" r="4.57" fill="#2d6a4f" opacity="0.336"/><circle cx="321.43" cy="567" r="5.55" fill="#2d6a4f" opacity="0.377"/><circle cx="364.29" cy="567" r="8.31" fill="#2d6a4f" opacity="0.491"/><circle cx="407.14" cy="567" r="6.73" fill="#2d6a4f" opacity="0.426"/><circle cx="450" cy="567" r="7.06" fill="#2d6a4f" opacity="0.439"/><circle cx="492.86" cy="567" r="8.21" fill="#2d6a4f" opacity="0.487"/><circle cx="535.71" cy="567" r="8.44" fill="#2d6a4f" opacity="0.496"/><circle cx="578.57" cy="567" r="11.6" fill="#0d844f" opacity="0.627"/><circle cx="621.43" cy="567" r="10.68" fill="#2d6a4f" opacity="0.589"/><circle cx="664.29" cy="567" r="13.46" fill="#0e8d55" opacity="0.704"/><circle cx="707.14" cy="567" r="13.02" fill="#0d8b53" opacity="0.685"/><circle cx="750" cy="567" r="13.52" fill="#0e8e55" opacity="0.706"/><circle cx="792.86" cy="567" r="12.4" fill="#0d8851" opacity="0.660"/><circle cx="835.71" cy="567" r="13.75" fill="#0e8f56" opacity="0.716"/><circle cx="878.57" cy="567" r="13.19" fill="#0d8c54" opacity="0.693"/><circle cx="921.43" cy="567" r="14.09" fill="#0e9157" opacity="0.730"/><circle cx="964.29" cy="567" r="13.22" fill="#0d8c54" opacity="0.694"/><circle cx="1007.14" cy="567" r="14.65" fill="#0e9459" opacity="0.753"/><circle cx="1050" cy="567" r="13.62" fill="#0e8e55" opacity="0.710"/><circle cx="1092.86" cy="567" r="13.24" fill="#0d8c54" opacity="0.695"/><circle cx="1135.71" cy="567" r="13.44" fill="#0d8d55" opacity="0.703"/><circle cx="1178.57" cy="567" r="12.75" fill="#0d8a53" opacity="0.674"/><circle cx="21.43" cy="609" r="2.48" fill="#00997a" opacity="0.250"/><circle cx="64.29" cy="609" r="2.48" fill="#00997a" opacity="0.250"/><circle cx="107.14" cy="609" r="2.48" fill="#00997a" opacity="0.250"/><circle cx="150" cy="609" r="2.48" fill="#00997a" opacity="0.250"/><circle cx="192.86" cy="609" r="2.48" fill="#00997a" opacity="0.250"/><circle cx="235.71" cy="609" r="3.66" fill="#2d6a4f" opacity="0.299"/><circle cx="278.57" cy="609" r="5.02" fill="#2d6a4f" opacity="0.355"/><circle cx="321.43" cy="609" r="5.37" fill="#2d6a4f" opacity="0.370"/><circle cx="364.29" cy="609" r="4.95" fill="#2d6a4f" opacity="0.352"/><circle cx="407.14" cy="609" r="6.38" fill="#2d6a4f" opacity="0.411"/><circle cx="450" cy="609" r="5.87" fill="#2d6a4f" opacity="0.390"/><circle cx="492.86" cy="609" r="7.45" fill="#2d6a4f" opacity="0.455"/><circle cx="535.71" cy="609" r="7.23" fill="#2d6a4f" opacity="0.447"/><circle cx="578.57" cy="609" r="11.34" fill="#2d6a4f" opacity="0.616"/><circle cx="621.43" cy="609" r="9.46" fill="#2d6a4f" opacity="0.538"/><circle cx="664.29" cy="609" r="10.65" fill="#2d6a4f" opacity="0.587"/><circle cx="707.14" cy="609" r="12.67" fill="#0d8952" opacity="0.671"/><circle cx="750" cy="609" r="10.62" fill="#2d6a4f" opacity="0.586"/><circle cx="792.86" cy="609" r="10.82" fill="#2d6a4f" opacity="0.594"/><circle cx="835.71" cy="609" r="10.92" fill="#2d6a4f" opacity="0.599"/><circle cx="878.57" cy="609" r="14.04" fill="#0e9057" opacity="0.728"/><circle cx="921.43" cy="609" r="13.35" fill="#0d8d54" opacity="0.699"/><circle cx="964.29" cy="609" r="11.18" fill="#2d6a4f" opacity="0.609"/><circle cx="1007.14" cy="609" r="12.6" fill="#0d8952" opacity="0.668"/><circle cx="1050" cy="609" r="13.38" fill="#0d8d55" opacity="0.700"/><circle cx="1092.86" cy="609" r="9.9" fill="#2d6a4f" opacity="0.557"/><circle cx="1135.71" cy="609" r="9.52" fill="#2d6a4f" opacity="0.541"/><circle cx="1178.57" cy="609" r="9.52" fill="#2d6a4f" opacity="0.541"/></g></svg>